<svg xmlns="http://www.w3.org/2000/svg" viewBox="0 0 240 240">
  <defs>
    <linearGradient id="a" x1="0" x2="1" y1="0" y2="1">
      <stop offset="0" stop-color="#37aee2" />
      <stop offset="1" stop-color="#1e96c8" />
    </linearGradient>
    <linearGradient id="b" x1="0.66" x2="0.85" y1="0.33" y2="0.54">
      <stop offset="0" stop-color="#eff7fc" />
      <stop offset="0.5" stop-color="#fff" />
    </linearGradient>
  </defs>
  <circle cx="120" cy="120" r="120" fill="url(#a)" />
  <path
    fill="#c8daea"
    d="M52 121.7 158.4 78.2c5-2 9.8 1.2 8.2 8l-18 84.6c-1.3 5.9-5.2 7.4-10.5 4.6l-29.1-21.5-14 13.5c-1.5 1.5-2.8 2.8-5.8 2.8l2-30.5 55.4-50.1c2.4-2.1-.5-3.2-3.8-1.2l-68.4 43.1-29.4-9.2c-6.4-2-6.6-6.4 1.3-9.4z"
  />
  <path
    fill="url(#b)"
    d="m91.3 171.8 5.6-35.2 53.2-47.9c2.4-2.1-.5-3.2-3.9-1.2l-65.6 40.6"
  />
</svg>


